<?xml version="1.0" encoding="UTF-8" standalone="no"?>
<!-- Created with Inkscape (http://www.inkscape.org/) -->

<svg
   xmlns:dc="http://purl.org/dc/elements/1.1/"
   xmlns:cc="http://creativecommons.org/ns#"
   xmlns:rdf="http://www.w3.org/1999/02/22-rdf-syntax-ns#"
   xmlns:svg="http://www.w3.org/2000/svg"
   xmlns="http://www.w3.org/2000/svg"
   xmlns:sodipodi="http://sodipodi.sourceforge.net/DTD/sodipodi-0.dtd"
   xmlns:inkscape="http://www.inkscape.org/namespaces/inkscape"
   width="210mm"
   height="297mm"
   viewBox="0 0 210 297"
   version="1.1"
   id="svg21759"
   inkscape:version="0.92.4 (5da689c313, 2019-01-14)"
   sodipodi:docname="music.svg">
  <defs
     id="defs21753">
    <clipPath
       clipPathUnits="userSpaceOnUse"
       id="clipPath18">
      <path
         d="M 0,800 H 650 V 0 H 0 Z"
         id="path16"
         inkscape:connector-curvature="0" />
    </clipPath>
    <clipPath
       clipPathUnits="userSpaceOnUse"
       id="clipPath6722">
      <path
         d="M 0,800 H 650 V 0 H 0 Z"
         id="path6720"
         inkscape:connector-curvature="0" />
    </clipPath>
    <clipPath
       clipPathUnits="userSpaceOnUse"
       id="clipPath13902">
      <path
         d="M 0,800 H 650 V 0 H 0 Z"
         id="path13900"
         inkscape:connector-curvature="0" />
    </clipPath>
    <clipPath
       clipPathUnits="userSpaceOnUse"
       id="clipPath20442">
      <path
         d="M 0,800 H 650 V 0 H 0 Z"
         id="path20440"
         inkscape:connector-curvature="0" />
    </clipPath>
    <clipPath
       clipPathUnits="userSpaceOnUse"
       id="clipPath20662">
      <path
         d="M 0,800 H 650 V 0 H 0 Z"
         id="path20660"
         inkscape:connector-curvature="0" />
    </clipPath>
    <rect
       height="598.28"
       width="841.89"
       y="-3"
       id="a" />
  </defs>
  <sodipodi:namedview
     id="base"
     pagecolor="#ffffff"
     bordercolor="#666666"
     borderopacity="1.0"
     inkscape:pageopacity="0.0"
     inkscape:pageshadow="2"
     inkscape:zoom="0.56601563"
     inkscape:cx="96.807891"
     inkscape:cy="819.14299"
     inkscape:document-units="mm"
     inkscape:current-layer="layer1"
     showgrid="false"
     showguides="true"
     inkscape:guide-bbox="true"
     inkscape:window-width="1920"
     inkscape:window-height="1001"
     inkscape:window-x="-9"
     inkscape:window-y="-9"
     inkscape:window-maximized="1"
     inkscape:snap-global="false">
    <sodipodi:guide
       position="176.69565,253.35726"
       orientation="0,1"
       id="guide22306"
       inkscape:locked="false" />
    <sodipodi:guide
       position="235.5942,43.94019"
       orientation="0,1"
       id="guide22308"
       inkscape:locked="false" />
  </sodipodi:namedview>
  <metadata
     id="metadata21756">
    <rdf:RDF>
      <cc:Work
         rdf:about="">
        <dc:format>image/svg+xml</dc:format>
        <dc:type
           rdf:resource="http://purl.org/dc/dcmitype/StillImage" />
        <dc:title></dc:title>
      </cc:Work>
    </rdf:RDF>
  </metadata>
  <g
     inkscape:label="Layer 1"
     inkscape:groupmode="layer"
     id="layer1">
    <g
       id="g85509"
       transform="matrix(1.1121738,0,0,1.1121738,-25.790284,14.180775)">
      <path
         id="path108"
         d="m 93.422156,68.269022 c 2.468695,8.083093 11.112864,11.852241 11.397134,19.920346 0.24061,6.790145 -5.352576,11.905852 -7.190383,11.905852 4.794003,-4.234206 5.671763,-7.351258 5.671763,-11.905852 0,-4.315221 -5.183009,-8.369842 -9.857317,-8.790038 l -0.02262,-0.02822 v 23.19949 c 0,3.6756 -2.098387,5.37502 -3.304058,6.34626 -2.696859,2.17198 -6.192927,2.31037 -7.807552,0.30535 -1.614625,-2.00483 -0.489998,-5.11566 1.958745,-7.5644 1.539816,-1.53859 6.192928,-2.309107 7.807553,-0.30536 0.170824,0.21205 0.337877,0.58598 0.453849,0.82538 l 0.01219,-33.907107 h 0.880252 z"
         inkscape:connector-curvature="0"
         style="stroke-width:1.24681449" />
      <path
         id="path110"
         d="M 53.28758,65.547068 C 52.84994,62.361455 48.895052,61.481231 45.883994,63.789071 V 48.483178 h -1.147071 v 28.305171 c 2.786629,-1.807853 9.187779,-6.595638 8.550657,-11.233794 z m -7.403586,9.026929 v -9.372298 c 0.623405,-1.341572 3.777845,-1.316643 4.149397,1.159529 0.180767,1.209428 0.270538,4.775334 -4.149397,8.216541 z"
         inkscape:connector-curvature="0"
         style="stroke-width:1.24681449" />
      <path
         id="path112"
         d="M 65.24827,48.241293 C 64.810632,45.055679 60.854495,44.174182 57.844686,46.482022 V 31.177358 H 56.697613 V 59.482571 C 59.483,57.662225 65.884145,52.874454 65.24827,48.236297 Z m -7.404833,9.026926 v -9.37357 c 0.62341,-1.341566 3.777851,-1.315365 4.149397,1.15958 0.180767,1.209385 0.270538,4.775277 -4.149397,8.2165 z"
         inkscape:connector-curvature="0"
         style="stroke-width:1.24681449" />
      <path
         id="path114"
         d="M 138.51366,78.820955 V 44.02233 h -0.87402 l -0.0128,34.403357 c -0.11472,-0.237983 -0.2818,-0.610917 -0.45135,-0.820385 -1.6059,-1.993654 -5.08327,-1.856533 -7.76516,0.304417 -2.6819,2.159489 -3.55467,5.529598 -1.94753,7.522032 1.6059,1.993668 5.08327,1.856491 7.76516,-0.304416 1.1982,-0.960044 3.28536,-2.643269 3.28536,-6.296439 z"
         inkscape:connector-curvature="0"
         style="stroke-width:1.24681449" />
      <path
         id="path116"
         d="m 189.59624,116.20461 h -35.7387 v 30.93843 c 0,3.60209 -2.05599,5.26656 -3.23796,6.21916 -2.64326,2.12952 -6.0695,2.26171 -7.65171,0.29782 -1.58346,-1.96373 -0.7244,-5.28153 1.9201,-7.41355 2.64324,-2.12957 6.06824,-2.26176 7.6517,-0.29783 0.16705,0.20687 0.33165,0.5735 0.44512,0.80794 l 0.0128,-34.62531 h 37.46305 v 35.01055 c 0,3.60204 -2.05601,5.26654 -3.23798,6.2191 -2.64324,2.12957 -6.06824,2.26171 -7.6517,0.29782 -1.58345,-1.96373 -0.7244,-5.28149 1.91884,-7.41355 2.64324,-2.12957 6.06824,-2.2617 7.6517,-0.29782 0.16705,0.20687 0.33165,0.57355 0.44514,0.80795 l 0.01,-30.547 z"
         inkscape:connector-curvature="0"
         style="stroke-width:1.24681449" />
      <path
         id="path118"
         d="m 63.884205,172.13016 c 0.128414,0.26578 0.319169,0.67703 0.503711,0.91392 1.311652,1.68943 5.664279,2.06971 8.652891,-0.33788 2.988617,-2.40888 3.959884,-6.16176 2.170708,-8.3836 -1.790429,-2.2218 -5.663035,-2.06967 -8.652896,0.33788 -1.336585,1.07602 -3.661893,2.95994 -3.661893,7.03331 v 38.67244 l 32.210207,-7.1393 0.01361,-42.60736 c 0.128415,0.26578 0.314223,0.67952 0.502467,0.91392 1.790424,2.22056 5.66428,2.06845 8.65289,-0.33788 2.98862,-2.40887 3.95989,-6.16176 2.17071,-8.38482 -1.79168,-2.22057 -5.66553,-2.06973 -8.654145,0.33787 -1.336585,1.07726 -3.661893,2.96117 -3.661893,7.03454 v 38.43928 l -30.260186,6.26774 0.01361,-32.75385 z"
         inkscape:connector-curvature="0"
         style="stroke-width:1.24681449" />
      <path
         id="path120"
         d="m 54.8049,162.35514 c 5.242856,-7.85992 12.185119,-14.13765 21.895311,-18.63989 0.891474,-0.41375 1.755515,-0.86652 2.651974,-1.22937 9.39599,-3.80651 19.846791,-5.20171 28.788945,-3.89878 -8.695283,-2.54224 -19.738319,-1.81036 -29.457239,1.96746 -0.966283,0.37511 -1.885181,0.87405 -2.838995,1.31663 -10.035611,4.65065 -16.848207,11.91958 -21.039996,20.48517 z"
         inkscape:connector-curvature="0"
         style="stroke-width:1.24681449" />
    </g>
  </g>
</svg>
