<?xml version="1.0" standalone="no"?>
<!DOCTYPE svg PUBLIC "-//W3C//DTD SVG 20010904//EN"
 "http://www.w3.org/TR/2001/REC-SVG-20010904/DTD/svg10.dtd">
<svg version="1.0" xmlns="http://www.w3.org/2000/svg"
 width="800.000000pt" height="800.000000pt" viewBox="0 0 1300.000000 1300.000000"
 preserveAspectRatio="xMidYMid meet">

<g transform="translate(0.000000,1300.000000) scale(0.100000,-0.100000)"
fill="#000000" stroke="none">
<path d="M347 12893 c-66 -265 -125 -399 -233 -529 -23 -28 -58 -61 -78 -75
-26 -18 -36 -31 -36 -51 0 -36 7 -35 66 5 136 93 252 309 327 607 42 165 41
150 9 150 -28 0 -29 -2 -55 -107z"/>
<path d="M707 12978 c-16 -72 -161 -558 -190 -638 -102 -281 -255 -465 -453
-545 -49 -20 -60 -28 -62 -51 -3 -25 -1 -26 25 -20 15 4 64 24 108 46 98 47
224 160 288 258 114 172 145 256 344 955 4 13 -1 17 -25 17 -23 0 -31 -5 -35
-22z"/>
<path d="M972 12923 c-51 -99 -112 -244 -192 -453 -207 -547 -265 -666 -383
-788 -100 -103 -272 -211 -364 -228 -28 -5 -33 -10 -33 -35 0 -27 2 -29 27
-23 134 32 226 84 363 205 133 117 220 269 350 609 150 394 207 533 264 650
33 69 62 128 64 133 2 4 -10 7 -26 7 -27 0 -34 -7 -70 -77z"/>
<path d="M1291 12922 c-100 -101 -157 -215 -250 -497 -115 -352 -190 -508
-374 -785 -202 -303 -442 -557 -608 -641 -52 -26 -59 -33 -59 -59 l0 -29 47
20 c210 90 523 430 762 828 118 197 194 369 286 651 37 113 85 241 106 286 65
136 151 232 257 284 l37 19 -64 1 -64 0 -76 -78z"/>
<path d="M1832 12979 c57 -30 163 -134 213 -210 132 -198 219 -484 232 -759 6
-151 -3 -224 -43 -347 -147 -443 -541 -887 -966 -1088 -119 -56 -308 -119
-423 -140 -115 -22 -216 -17 -485 23 -113 17 -240 34 -282 38 l-78 7 0 -27 c0
-14 1 -26 3 -26 69 -8 421 -55 522 -70 157 -24 234 -22 375 11 406 94 738 298
1018 624 171 199 294 410 367 627 46 138 59 235 51 378 -21 363 -169 736 -366
924 -58 55 -59 56 -117 56 l-58 -1 37 -20z"/>
<path d="M2240 12908 c199 -381 244 -960 108 -1393 -28 -87 -136 -305 -222
-449 -36 -60 -66 -112 -66 -117 0 -4 -4 -9 -8 -11 -5 -1 -27 -31 -50 -65 -75
-111 -200 -261 -305 -366 -233 -234 -485 -379 -767 -444 -96 -22 -401 -21
-677 1 -257 21 -253 21 -253 -8 0 -21 6 -25 48 -30 156 -19 368 -30 587 -31
269 0 309 5 475 62 446 152 882 597 1191 1215 125 248 167 425 176 733 10 344
-50 652 -178 913 -39 78 -43 82 -74 82 l-33 0 48 -92z"/>
<path d="M2360 12997 c0 -2 22 -51 49 -108 170 -362 248 -731 212 -1004 -87
-659 -573 -1601 -991 -1917 -295 -224 -833 -304 -1562 -232 -68 7 -68 7 -68
-19 0 -20 6 -27 27 -31 176 -34 718 -41 918 -12 323 47 551 125 716 247 176
130 411 426 576 725 32 59 35 69 23 88 -12 18 -11 20 2 8 21 -17 25 -10 88
123 174 369 287 721 325 1008 19 148 19 187 -1 334 -30 221 -97 448 -199 673
-50 108 -55 115 -84 118 -17 2 -31 1 -31 -1z"/>
<path d="M2490 12996 c0 -1 21 -48 46 -102 205 -437 276 -762 229 -1045 -23
-141 -51 -225 -162 -494 -154 -370 -213 -516 -234 -575 -27 -74 -89 -391 -89
-452 0 -26 12 -171 26 -321 40 -418 28 -528 -60 -571 -84 -41 -289 -31 -707
34 -191 30 -176 29 -1125 71 -139 6 -288 14 -333 18 l-81 7 0 -27 c0 -25 4
-27 53 -33 73 -8 382 -24 722 -36 387 -14 581 -27 695 -45 371 -59 531 -75
555 -55 13 11 14 10 10 -3 -6 -13 4 -15 65 -12 233 12 280 67 280 329 0 72 -9
223 -20 336 -27 280 -26 347 10 527 35 176 56 238 222 638 153 367 171 415
202 535 93 356 42 645 -218 1223 -23 51 -29 57 -56 57 -16 0 -30 -2 -30 -4z"/>
<path d="M2779 12818 c104 -213 125 -273 143 -394 16 -116 16 -492 0 -609 -40
-279 -81 -416 -187 -621 -140 -270 -198 -502 -198 -784 1 -128 4 -158 31 -260
52 -200 138 -374 281 -568 164 -224 215 -315 233 -424 20 -116 -9 -182 -104
-231 -109 -57 -295 -47 -546 29 -276 84 -742 195 -1062 253 -326 60 -527 83
-1053 121 -346 25 -317 25 -317 -5 0 -30 -2 -30 295 -50 614 -42 899 -79 1330
-172 184 -39 582 -139 751 -188 343 -99 483 -107 630 -35 62 30 104 73 125
127 17 44 11 154 -12 229 -28 92 -63 153 -184 319 -56 77 -114 159 -129 183
-27 42 -135 255 -138 269 0 5 -11 39 -24 77 -56 163 -68 329 -39 534 31 221
83 379 186 564 117 209 178 464 204 848 7 105 -9 355 -30 467 -17 88 -68 217
-149 378 -57 113 -63 120 -93 123 l-32 3 88 -183z"/>
<path d="M2911 12918 c109 -297 163 -590 162 -888 0 -246 -24 -383 -134 -773
-77 -273 -106 -406 -120 -553 -20 -223 20 -445 110 -603 58 -102 68 -116 81
-113 6 1 9 -2 5 -8 -4 -6 6 -28 21 -48 26 -34 122 -150 134 -162 3 -3 46 -52
97 -110 289 -333 381 -530 352 -750 -21 -157 -105 -270 -239 -319 -175 -64
-383 -48 -830 64 -587 146 -1268 265 -2297 399 l-253 33 0 -29 c0 -15 3 -28 6
-28 26 0 754 -99 1024 -140 529 -79 1092 -187 1468 -280 438 -108 641 -132
815 -95 235 50 367 221 367 475 0 200 -112 415 -351 679 -30 33 -62 71 -72 85
-10 15 -23 24 -28 20 -5 -3 -8 0 -7 8 2 7 -3 12 -10 10 -8 -1 -11 2 -7 8 3 5
-23 43 -58 85 -215 251 -287 454 -274 764 7 164 30 275 126 621 117 417 137
550 128 835 -9 272 -49 494 -140 765 -41 123 -42 125 -74 128 l-32 3 30 -83z"/>
<path d="M3120 12993 c0 -5 7 -30 15 -57 27 -88 84 -359 106 -506 18 -115 23
-189 23 -360 0 -254 -7 -300 -114 -740 -96 -394 -104 -444 -104 -640 0 -147 2
-176 27 -268 70 -270 161 -399 594 -848 241 -250 311 -332 453 -530 127 -176
204 -253 287 -284 49 -19 72 -21 153 -17 203 10 381 106 760 406 208 165 356
262 481 317 57 25 115 50 129 56 14 6 30 12 35 14 6 1 48 13 95 27 232 68 483
98 925 112 347 10 443 33 530 122 96 99 146 300 161 645 7 152 -16 831 -36
1103 -28 367 -172 651 -407 806 -110 71 -203 100 -349 106 -190 9 -333 -26
-536 -128 -296 -150 -383 -186 -546 -226 -144 -35 -304 -37 -407 -5 -260 80
-417 306 -500 717 -14 67 -25 137 -25 154 0 28 -3 31 -30 31 -36 0 -36 5 -10
-147 47 -273 126 -464 258 -621 201 -238 542 -276 961 -107 52 20 172 77 265
124 251 128 402 169 576 158 162 -11 289 -67 410 -183 150 -144 250 -365 280
-623 13 -107 30 -525 37 -903 8 -413 -19 -650 -89 -787 -76 -147 -163 -172
-648 -186 -233 -7 -348 -16 -516 -40 -127 -19 -312 -61 -329 -75 -7 -5 -14 -8
-17 -5 -7 7 -161 -51 -268 -101 -123 -59 -275 -161 -480 -324 -360 -286 -544
-383 -730 -383 -72 -1 -93 3 -135 25 -67 35 -129 100 -227 238 -154 218 -187
256 -478 560 -108 113 -225 236 -259 274 -158 176 -256 338 -308 511 -25 84
-27 102 -27 285 -1 221 5 257 99 630 164 656 162 898 -17 1633 -10 42 -14 47
-40 47 -15 0 -28 -3 -28 -7z"/>
<path d="M3350 12988 c0 -30 60 -399 77 -473 14 -64 18 -121 17 -285 0 -192
-2 -214 -32 -350 -17 -80 -52 -221 -77 -315 -103 -385 -129 -533 -128 -735 0
-216 50 -383 168 -560 185 -277 583 -634 921 -826 286 -162 506 -215 700 -169
112 26 297 105 534 228 413 214 486 237 905 292 366 47 541 90 660 160 177
104 301 326 362 648 13 71 17 142 17 312 -1 194 -4 236 -27 356 -27 139 -79
304 -124 393 -71 140 -180 257 -290 309 -64 30 -75 32 -178 32 -133 0 -182
-14 -429 -120 -335 -143 -555 -195 -832 -195 -462 0 -801 178 -962 505 -73
147 -125 361 -151 620 -20 187 -19 185 -48 185 l-26 0 7 -82 c42 -503 141
-786 348 -990 246 -242 663 -345 1108 -273 205 34 323 72 674 219 139 59 212
78 306 79 131 1 232 -50 327 -165 237 -285 321 -944 177 -1378 -63 -190 -171
-343 -287 -408 -105 -60 -285 -106 -527 -137 -375 -47 -524 -78 -677 -139 -48
-19 -225 -104 -393 -189 -401 -201 -535 -244 -698 -220 -108 16 -186 44 -337
118 -246 120 -496 305 -736 545 -239 238 -354 408 -411 605 -20 70 -23 102
-23 255 0 226 6 255 144 791 79 308 95 406 95 604 1 129 -4 192 -18 260 -10
50 -33 182 -50 295 l-32 205 -27 3 c-17 2 -27 -1 -27 -10z m2870 -3192 c0 -2
-8 -10 -17 -17 -16 -13 -17 -12 -4 4 13 16 21 21 21 13z"/>
<path d="M5397 12928 c48 -91 117 -166 185 -203 52 -29 56 -30 188 -29 123 1
147 4 275 38 384 103 414 107 611 82 387 -49 740 -212 980 -451 143 -142 208
-275 240 -487 19 -128 15 -313 -11 -503 -70 -515 -83 -670 -66 -838 38 -395
162 -633 418 -804 119 -79 235 -126 423 -173 180 -44 234 -64 325 -118 33 -19
83 -47 110 -63 53 -29 195 -88 223 -92 9 -1 23 -6 30 -10 36 -23 247 -58 383
-64 175 -7 255 5 524 79 646 177 818 174 1540 -32 442 -126 489 -135 920 -190
132 -16 255 -32 273 -35 30 -6 32 -4 32 25 0 20 -5 30 -15 30 -8 0 -140 16
-292 36 -398 51 -461 64 -1033 223 -340 95 -614 138 -798 126 -151 -11 -329
-45 -566 -110 -332 -90 -379 -99 -536 -99 -253 0 -533 79 -736 207 -95 59
-175 91 -338 132 -207 52 -263 73 -378 138 -249 143 -362 306 -430 623 -20 96
-23 135 -22 324 0 184 5 248 32 445 40 297 52 422 52 570 0 402 -136 648 -484
878 -282 185 -636 296 -949 298 -103 0 -232 -21 -362 -62 -235 -72 -422 -93
-516 -56 -56 21 -133 99 -179 180 -28 49 -36 57 -62 57 l-29 0 38 -72z"/>
<path d="M6965 12961 c218 -54 330 -93 515 -180 528 -247 709 -447 711 -789 1
-114 -21 -230 -80 -426 -212 -699 -189 -1177 71 -1503 167 -210 499 -393 839
-462 197 -40 270 -46 529 -46 272 1 345 8 645 65 273 52 447 65 657 50 277
-19 470 -55 963 -180 388 -98 601 -136 990 -175 200 -20 195 -20 195 10 0 29
5 28 -230 50 -349 33 -545 69 -1010 185 -570 142 -716 165 -1055 164 -261 0
-289 -3 -595 -64 -197 -39 -348 -53 -575 -53 -290 0 -482 29 -725 109 -186 61
-427 209 -542 332 -259 276 -312 693 -164 1286 18 72 51 194 73 271 73 253 87
380 59 529 -52 268 -228 447 -641 653 -186 93 -305 141 -449 183 -89 26 -119
30 -217 29 l-114 -1 150 -37z"/>
<path d="M7545 12934 c800 -257 916 -302 1002 -386 99 -95 126 -219 83 -373
-12 -43 -26 -86 -31 -94 -4 -9 -23 -50 -42 -91 -18 -41 -72 -143 -120 -227
-245 -431 -302 -606 -301 -923 1 -146 4 -176 27 -264 122 -456 542 -752 1142
-807 211 -19 373 -6 892 70 342 51 574 67 738 51 264 -24 538 -74 1025 -185
510 -117 647 -144 998 -191 41 -5 42 -4 42 23 l0 28 -166 23 c-205 28 -415 69
-840 166 -649 147 -868 184 -1139 193 -195 7 -341 -5 -698 -58 -426 -63 -488
-69 -694 -69 -440 0 -809 141 -1048 399 -167 182 -250 452 -224 730 24 255 82
412 274 751 158 278 213 404 235 546 12 72 11 89 -4 150 -21 85 -51 138 -108
191 -90 82 -187 126 -539 241 -507 167 -524 172 -618 171 l-86 -1 200 -64z"/>
<path d="M9065 12958 c22 -144 77 -212 226 -282 120 -57 212 -71 444 -70 196
0 315 11 630 54 317 43 571 60 926 60 318 0 503 -24 697 -89 162 -54 237 -96
490 -273 185 -130 270 -170 372 -176 46 -3 92 0 114 8 31 10 36 16 36 42 0 25
-3 29 -17 23 -114 -46 -220 -22 -384 88 -52 35 -157 106 -234 158 -127 86
-227 136 -370 188 -58 20 -191 50 -305 68 -92 14 -174 17 -410 17 -379 -1
-577 -14 -968 -65 -626 -81 -913 -63 -1086 69 -59 44 -106 125 -106 183 0 37
-2 39 -31 39 -31 0 -31 0 -24 -42z"/>
<path d="M9770 12990 c57 -37 290 -94 465 -115 326 -38 741 -12 1315 83 l225
37 -145 3 c-107 2 -182 -2 -285 -17 -638 -94 -1076 -91 -1415 9 -46 13 -181
13 -160 0z"/>
<path d="M1578 12637 c-154 -58 -287 -217 -432 -520 -184 -382 -318 -795 -320
-982 -1 -77 3 -97 24 -139 54 -106 147 -141 298 -112 200 39 417 169 617 370
186 187 288 349 353 564 23 76 26 105 26 227 1 128 -2 147 -27 220 -57 162
-158 292 -273 350 -49 24 -74 30 -144 32 -55 2 -98 -2 -122 -10z m240 -72 c78
-42 121 -83 173 -163 73 -111 102 -211 102 -347 0 -139 -25 -240 -97 -390 -68
-141 -152 -257 -269 -374 -225 -222 -481 -361 -670 -361 -74 0 -120 21 -149
69 -33 52 -33 210 0 331 116 428 338 924 500 1118 117 140 281 187 410 117z"/>
<path d="M10795 12544 c-27 -2 -126 -8 -220 -14 -979 -61 -1472 -269 -1871
-790 -306 -399 -421 -873 -294 -1219 85 -234 294 -415 575 -499 155 -46 240
-57 450 -57 204 1 308 12 525 56 52 11 109 22 125 25 17 2 66 12 110 20 244
47 501 57 745 28 193 -22 398 -63 771 -154 484 -118 769 -177 1089 -225 209
-31 202 -31 198 2 l-3 27 -190 27 c-304 44 -626 110 -1045 214 -459 114 -689
157 -940 176 -238 17 -390 4 -770 -67 -336 -63 -444 -76 -615 -77 -248 0 -428
39 -616 135 -485 247 -543 848 -138 1458 253 383 602 627 1073 751 241 63 505
96 1016 125 243 14 316 15 416 5 340 -33 638 -162 1004 -435 369 -275 525
-350 717 -344 87 3 88 3 91 30 l3 26 -78 -5 c-96 -7 -174 11 -290 66 -106 51
-164 88 -367 239 -361 267 -603 389 -897 454 -75 16 -138 21 -309 23 -118 1
-237 1 -265 -1z"/>
<path d="M10435 12343 c-418 -36 -855 -179 -1155 -379 -440 -291 -724 -676
-765 -1034 -13 -117 25 -270 98 -391 151 -254 428 -379 838 -379 159 0 369 21
730 74 371 55 535 70 659 63 112 -7 489 -55 1040 -131 355 -49 873 -114 1053
-131 l67 -7 0 29 0 29 -177 17 c-200 20 -565 66 -1003 127 -1050 145 -1077
146 -1578 70 -74 -11 -136 -20 -138 -20 -3 0 -2 -6 2 -12 6 -10 4 -10 -7 -2
-10 9 -34 8 -95 -1 -258 -42 -612 -58 -775 -35 -341 48 -568 228 -640 508 -33
131 -21 261 41 419 133 344 540 731 960 914 345 149 690 219 1083 219 292 0
479 -27 702 -101 191 -63 362 -162 625 -359 271 -204 354 -261 470 -323 185
-100 374 -146 499 -121 25 5 31 11 31 33 l0 26 -95 -3 c-208 -7 -404 81 -750
338 -288 214 -332 245 -429 304 -174 106 -307 161 -511 209 -171 41 -335 57
-550 55 -104 -1 -208 -3 -230 -5z"/>
<path d="M10498 12109 c-273 -19 -600 -118 -868 -261 -352 -188 -664 -465
-789 -700 -97 -181 -90 -350 19 -488 75 -95 255 -203 380 -229 164 -35 339
-22 658 49 270 60 351 70 577 70 216 1 272 -4 650 -53 l250 -32 745 0 c410 0
775 -4 813 -9 l67 -9 0 32 c0 28 -3 31 -32 31 -18 0 -107 5 -198 11 -122 8
-286 8 -630 -2 -514 -13 -640 -9 -1015 36 -337 41 -381 45 -565 51 -209 8
-355 -4 -554 -47 -410 -87 -380 -83 -561 -83 -149 -1 -179 2 -240 21 -142 45
-293 162 -345 268 -34 70 -39 172 -12 262 41 135 182 315 367 470 300 252 613
415 964 502 187 47 260 56 481 56 232 -1 345 -18 544 -82 313 -101 488 -220
867 -589 279 -272 381 -358 505 -425 128 -69 269 -92 382 -60 38 11 42 15 42
42 0 27 -3 30 -22 23 -167 -53 -314 -17 -508 127 -46 35 -190 167 -320 294
-129 127 -262 253 -295 280 -33 28 -62 52 -65 55 -18 18 -127 94 -190 133
-235 144 -513 233 -805 257 -131 11 -141 11 -297 -1z"/>
<path d="M3921 11834 c-67 -24 -111 -56 -177 -127 -161 -175 -296 -579 -280
-834 7 -122 20 -171 72 -278 81 -169 225 -303 479 -444 33 -19 157 -98 275
-176 309 -204 410 -259 570 -306 196 -58 457 -22 846 117 209 75 293 103 373
125 85 24 308 76 361 84 19 3 76 17 125 30 224 60 340 118 446 225 119 119
166 235 176 430 13 249 -78 502 -236 661 -181 182 -443 215 -1014 128 -413
-62 -455 -68 -574 -78 -85 -8 -153 -8 -225 0 -215 21 -329 65 -580 220 -205
127 -326 192 -405 218 -74 25 -169 27 -232 5z m283 -86 c96 -44 131 -64 318
-179 68 -42 153 -93 190 -113 91 -49 253 -101 366 -116 116 -16 327 -8 502 19
69 10 233 36 365 56 215 34 261 38 445 39 221 1 289 -9 395 -58 177 -81 323
-335 342 -593 4 -56 10 -80 17 -76 6 3 5 0 -1 -8 -7 -7 -13 -34 -13 -61 0
-165 -96 -342 -238 -440 -60 -41 -172 -92 -262 -118 -41 -12 -82 -24 -90 -27
-8 -3 -22 -7 -30 -8 -38 -6 -317 -66 -373 -80 -92 -24 -161 -46 -387 -125
-371 -128 -506 -160 -685 -160 -206 0 -362 67 -742 318 -131 87 -269 176 -308
197 -114 63 -206 130 -279 202 -112 111 -172 214 -201 347 -71 318 131 881
358 998 95 49 181 45 311 -14z"/>
<path d="M5761 11089 c-46 -4 -114 -13 -150 -19 -36 -6 -83 -13 -105 -15 -315
-36 -551 -168 -641 -357 -125 -262 -19 -490 280 -603 156 -58 322 -67 585 -29
243 35 580 119 628 156 6 6 12 8 12 5 0 -10 109 42 184 86 79 47 158 121 185
176 29 55 51 140 51 191 0 80 -26 136 -99 210 -99 101 -246 164 -451 195 -102
16 -338 18 -479 4z m398 -49 c346 -36 574 -179 574 -361 1 -243 -249 -408
-786 -518 -350 -72 -588 -79 -755 -22 -112 37 -181 80 -244 149 -78 87 -98
196 -59 321 64 205 237 322 565 381 60 11 112 20 114 20 2 0 -2 8 -9 18 -13
16 -13 16 7 0 17 -15 28 -16 84 -7 171 26 365 33 509 19z"/>
<path d="M10575 11823 c-210 -27 -445 -108 -760 -262 -211 -104 -343 -189
-441 -286 -72 -71 -121 -146 -108 -167 4 -6 3 -8 -3 -5 -19 12 -25 -74 -8
-129 18 -60 101 -146 176 -182 120 -58 237 -52 540 29 209 55 307 65 486 50
80 -7 199 -21 265 -32 67 -11 123 -17 126 -14 3 3 10 1 16 -4 6 -5 88 -21 183
-37 159 -26 177 -27 255 -16 214 31 375 118 432 234 20 40 26 67 26 120 0 118
-59 226 -191 354 -187 180 -412 302 -624 339 -80 14 -290 18 -370 8z m382 -69
c218 -44 443 -177 617 -365 153 -166 175 -323 60 -429 -70 -65 -197 -116 -345
-139 -66 -11 -173 3 -494 63 -170 32 -357 48 -505 44 -135 -4 -158 -8 -345
-57 -300 -78 -402 -80 -517 -12 -77 46 -128 114 -128 171 0 64 35 127 113 204
93 93 193 160 369 250 500 255 854 336 1175 270z"/>
<path d="M6475 9550 c-129 -15 -279 -49 -403 -92 -113 -38 -321 -135 -353
-164 -8 -8 -19 -14 -23 -14 -4 0 -47 -26 -94 -57 -463 -307 -781 -754 -874
-1228 -28 -140 -30 -374 -5 -511 52 -284 148 -482 542 -1124 412 -671 540
-895 681 -1185 200 -412 307 -749 307 -965 0 -209 -71 -366 -272 -605 -41 -49
-78 -92 -81 -95 -22 -18 -199 -237 -280 -345 -175 -235 -298 -438 -390 -642
-26 -60 -76 -166 -110 -238 -124 -262 -185 -496 -185 -715 0 -202 36 -366 155
-710 39 -113 97 -304 130 -425 58 -214 91 -320 124 -397 14 -32 21 -38 46 -38
l29 0 -30 72 c-16 40 -52 151 -79 247 -27 97 -62 223 -79 281 -16 58 -54 175
-84 260 -142 405 -185 642 -152 845 35 215 78 345 209 630 123 267 162 343
248 486 124 205 286 418 538 709 158 183 246 324 291 470 20 63 23 97 23 215
0 126 -3 152 -31 260 -41 152 -100 326 -164 480 -94 224 -375 763 -392 750 -4
-3 -5 -2 -2 2 3 3 -9 31 -26 62 -29 51 -382 630 -434 711 -95 149 -281 479
-346 615 -169 353 -194 727 -74 1090 80 240 220 468 409 663 327 337 684 542
1088 624 152 31 465 33 598 4 298 -65 458 -183 582 -431 20 -38 73 -169 118
-290 132 -354 233 -528 410 -706 298 -302 694 -399 1121 -275 153 44 321 122
489 226 114 70 360 188 495 238 662 245 1312 251 1791 16 290 -142 575 -427
724 -724 102 -202 116 -292 104 -635 -13 -359 -10 -565 9 -655 24 -111 85
-227 159 -302 l62 -63 4 33 c3 27 -4 41 -44 85 -53 58 -95 141 -121 237 -19
70 -22 237 -13 745 4 207 2 251 -13 320 -90 395 -470 835 -887 1028 -627 289
-1549 174 -2322 -290 -211 -126 -375 -194 -568 -233 -90 -19 -127 -21 -260
-17 -129 4 -170 9 -244 31 -178 53 -302 129 -447 275 -172 171 -270 339 -394
676 -118 322 -189 451 -305 558 -72 68 -190 140 -230 141 -15 1 -26 4 -24 7 4
7 0 9 -86 34 -152 44 -398 64 -565 45z"/>
<path d="M8051 9429 c-79 -23 -133 -74 -168 -160 -25 -62 -25 -295 1 -389 98
-359 353 -684 604 -771 172 -60 375 -31 535 75 114 76 219 219 246 337 15 64
13 196 -4 259 -48 181 -210 352 -440 467 -161 81 -383 149 -576 178 -111 17
-149 17 -198 4z m324 -84 c375 -86 642 -237 770 -435 100 -155 110 -322 28
-484 -14 -28 -59 -84 -99 -124 -161 -161 -388 -213 -584 -133 -97 40 -164 87
-247 174 -202 213 -327 503 -328 757 0 88 4 113 23 155 48 104 95 128 232 121
52 -3 145 -17 205 -31z"/>
<path d="M6385 9374 c-235 -36 -459 -124 -652 -256 -355 -244 -564 -569 -639
-999 -22 -127 -22 -380 0 -519 20 -119 62 -274 107 -391 38 -99 97 -214 279
-544 169 -307 327 -627 401 -814 72 -183 169 -376 354 -706 237 -425 333 -632
381 -830 52 -216 15 -375 -133 -575 -31 -41 -160 -178 -287 -305 -256 -254
-333 -349 -530 -654 -217 -336 -313 -566 -381 -913 -19 -95 -26 -165 -26 -245
0 -401 183 -845 474 -1149 217 -228 431 -332 903 -439 139 -32 169 -35 272
-33 l117 3 -175 39 c-528 116 -709 178 -896 307 -84 59 -223 197 -300 298
-195 260 -321 600 -340 919 -13 228 82 606 226 893 79 156 324 532 438 669 25
30 147 156 272 280 232 231 305 317 364 430 130 248 105 472 -104 905 -37 77
-140 271 -229 430 -174 312 -272 504 -325 637 -18 45 -38 82 -43 81 -6 -1 -9
6 -6 16 10 37 -163 392 -392 806 -298 538 -369 742 -382 1090 -13 350 84 672
282 940 48 65 178 199 250 258 69 56 193 132 298 182 214 103 365 138 587 138
162 0 247 -14 375 -64 278 -107 424 -296 605 -784 151 -406 277 -604 506 -794
286 -237 620 -343 1031 -328 163 6 174 7 308 33 247 47 397 105 841 326 520
259 711 336 952 379 166 30 377 24 507 -15 170 -51 301 -130 452 -271 200
-186 322 -410 369 -675 23 -128 23 -416 1 -560 -61 -384 -69 -502 -42 -618 29
-123 102 -231 209 -307 73 -52 199 -117 282 -146 l55 -18 -3 31 c-3 28 -9 33
-55 49 -80 27 -203 94 -269 147 -126 102 -179 222 -177 407 0 61 8 157 17 215
50 311 56 370 56 525 0 385 -89 640 -314 898 -169 192 -352 313 -581 383 -83
25 -103 28 -270 28 -154 1 -195 -2 -285 -22 -243 -55 -426 -129 -891 -362
-468 -235 -594 -285 -841 -334 -404 -82 -754 -44 -1066 113 -172 87 -322 208
-443 359 -130 162 -179 259 -320 637 -185 496 -364 692 -721 791 -79 22 -118
26 -258 29 -91 2 -178 1 -195 -1z"/>
<path d="M6290 9201 c-357 -78 -664 -339 -868 -738 -125 -245 -169 -471 -138
-709 28 -216 100 -413 257 -709 168 -317 309 -616 424 -900 27 -66 52 -122 55
-125 3 -3 6 -12 8 -20 4 -16 194 -513 237 -619 95 -232 252 -486 376 -609 24
-24 114 -96 199 -159 183 -136 262 -210 298 -278 24 -45 27 -61 27 -150 0 -87
-3 -107 -27 -157 -72 -153 -241 -335 -498 -532 -85 -66 -201 -156 -258 -199
-118 -92 -296 -266 -389 -382 -205 -255 -371 -584 -447 -890 -110 -443 -11
-859 284 -1195 268 -303 669 -534 1343 -774 147 -52 164 -56 245 -55 l87 0
-225 78 c-757 260 -1187 510 -1449 840 -177 223 -258 437 -268 707 -9 221 29
419 127 663 168 417 412 726 825 1040 418 319 566 463 654 639 68 137 77 243
31 366 -31 81 -123 172 -324 320 -171 127 -217 169 -287 261 -134 178 -228
363 -372 740 -235 612 -347 872 -540 1245 -185 357 -214 420 -259 545 -99 276
-113 520 -43 754 125 420 457 796 808 915 111 37 192 50 322 50 195 1 307 -38
447 -150 155 -125 259 -292 458 -735 217 -483 311 -622 560 -833 371 -315 774
-527 1150 -607 149 -32 417 -32 535 0 44 12 87 23 96 25 9 3 50 18 91 35 141
59 218 120 448 350 219 221 361 343 507 438 380 248 726 298 1002 145 187
-103 347 -283 420 -470 49 -127 64 -234 58 -402 -6 -175 -29 -301 -101 -565
-64 -234 -86 -348 -86 -454 0 -277 124 -440 452 -595 129 -61 312 -130 399
-150 l59 -14 0 28 c0 25 -5 29 -62 44 -103 28 -206 66 -330 121 -311 139 -430
261 -460 476 -14 100 -1 220 43 386 131 496 143 563 143 778 0 164 -19 265
-70 387 -67 160 -222 342 -375 441 -169 109 -323 146 -522 126 -132 -13 -249
-48 -392 -118 -236 -116 -443 -277 -730 -569 -99 -101 -207 -203 -240 -227
-64 -45 -195 -114 -258 -134 -20 -7 -35 -17 -32 -22 4 -5 0 -6 -8 -4 -7 3 -53
-1 -101 -10 -164 -28 -370 -18 -551 26 -360 89 -778 327 -1116 636 -183 167
-270 298 -424 638 -118 261 -230 490 -281 574 -137 225 -290 362 -476 428 -64
23 -91 27 -228 30 -123 2 -173 -1 -240 -16z"/>
<path d="M6305 8953 c-57 -12 -171 -58 -232 -93 -248 -143 -424 -399 -515
-748 -82 -311 -15 -561 289 -1085 138 -238 156 -271 214 -392 73 -155 121
-302 199 -610 123 -484 229 -725 400 -908 97 -104 205 -169 355 -214 84 -25
340 -25 441 -1 291 71 570 233 805 467 197 197 317 389 385 616 23 77 27 109
27 220 1 118 -1 138 -26 210 -50 143 -124 254 -252 380 -88 87 -147 135 -372
304 -484 362 -598 513 -768 1011 -114 336 -186 476 -316 615 -107 114 -223
187 -346 219 -57 15 -236 21 -288 9z m270 -63 c118 -30 196 -78 305 -189 147
-149 201 -251 325 -616 118 -349 201 -499 382 -686 117 -121 239 -225 428
-364 454 -335 604 -538 605 -823 0 -258 -128 -525 -380 -786 -360 -373 -857
-566 -1215 -470 -158 42 -316 162 -420 319 -112 168 -182 347 -276 710 -33
127 -62 237 -66 245 -3 8 -8 24 -10 35 -10 60 -81 261 -127 363 -29 64 -113
221 -186 347 -219 378 -299 552 -339 739 -26 120 -26 207 -1 332 37 180 92
317 183 457 201 309 509 459 792 387z"/>
<path d="M6318 8724 c-72 -17 -118 -41 -190 -98 -115 -91 -221 -269 -270 -448
-33 -125 -31 -300 6 -423 35 -117 105 -249 245 -465 142 -218 202 -334 246
-475 32 -99 75 -289 90 -391 71 -474 134 -695 251 -877 87 -134 196 -226 332
-280 107 -42 256 -49 387 -18 423 100 766 545 765 994 0 117 -20 200 -71 298
-84 161 -226 283 -603 519 -248 155 -405 300 -476 440 -49 95 -61 151 -71 310
-27 450 -92 675 -235 814 -99 97 -259 136 -406 100z m275 -77 c191 -87 281
-327 307 -812 10 -187 28 -267 82 -365 87 -155 211 -274 446 -425 365 -236
398 -259 498 -359 81 -81 109 -116 138 -176 73 -150 82 -297 30 -491 -102
-384 -417 -683 -769 -728 -318 -42 -575 156 -698 534 -44 134 -66 236 -112
511 -62 368 -100 512 -179 679 -42 88 -80 151 -240 400 -115 178 -155 262
-191 405 -26 100 -17 280 19 385 56 164 142 300 239 376 100 79 160 100 282
96 72 -2 101 -8 148 -30z"/>
<path d="M7053 6685 c-132 -41 -232 -150 -274 -300 -20 -73 -18 -282 5 -365
46 -172 156 -323 275 -378 180 -84 454 5 584 190 108 154 132 325 72 501 -60
175 -202 303 -390 352 -71 18 -214 19 -272 0z m239 -49 c96 -21 171 -60 242
-127 102 -95 156 -219 156 -359 0 -230 -149 -415 -385 -475 -75 -19 -118 -19
-183 0 -271 81 -407 596 -221 839 89 115 224 157 391 122z"/>
<path d="M12690 8761 c-119 -13 -182 -35 -236 -85 l-48 -43 -4 -74 c-4 -69 -2
-78 33 -144 48 -91 119 -179 279 -345 128 -133 212 -246 261 -352 l25 -53 0
62 c0 56 -5 71 -42 135 -36 59 -244 302 -278 323 -30 18 -159 188 -193 254
-34 66 -38 82 -34 126 4 40 10 54 37 76 58 49 134 64 333 64 l177 0 0 28 c0
26 -1 27 -59 27 -32 0 -85 2 -117 4 -32 2 -93 1 -134 -3z"/>
<path d="M0 8728 c0 -15 4 -28 10 -28 5 0 90 -9 187 -20 98 -10 268 -24 378
-30 287 -15 628 -49 1005 -101 374 -51 606 -92 865 -155 99 -23 257 -61 350
-84 224 -54 457 -122 578 -170 319 -125 462 -316 413 -549 -46 -220 -248 -471
-561 -697 -107 -77 -332 -190 -467 -235 -53 -18 -95 -36 -92 -41 3 -4 -1 -5
-9 -2 -8 3 -72 -6 -143 -20 -71 -13 -192 -34 -269 -46 -341 -52 -739 -131
-860 -172 -33 -11 -118 -42 -190 -70 -178 -69 -282 -104 -400 -134 -84 -22
-117 -25 -210 -22 -101 3 -116 6 -177 36 -82 40 -139 96 -178 176 -48 96 -60
187 -60 439 0 472 -34 699 -135 912 l-33 70 -1 -62 c-1 -40 6 -80 18 -112 65
-163 81 -292 90 -706 9 -388 17 -453 69 -565 33 -71 131 -169 202 -202 80 -38
166 -52 268 -44 136 10 285 54 628 185 220 84 480 140 1039 226 335 52 502
101 725 216 157 81 279 166 386 267 41 40 80 72 85 72 5 0 17 13 27 29 9 15
20 29 25 30 4 0 7 2 6 4 0 1 23 27 51 57 70 75 125 157 170 254 138 294 35
547 -290 711 -138 70 -464 170 -815 249 -88 20 -212 49 -275 66 -391 100
-1235 211 -1910 250 -96 6 -231 17 -300 25 -217 25 -200 25 -200 -7z"/>
<path d="M1295 8345 c-94 -15 -225 -54 -285 -85 -245 -126 -400 -371 -460
-725 -43 -258 -46 -584 -6 -716 49 -161 143 -249 316 -296 53 -15 103 -18 265
-17 284 1 524 30 921 113 249 52 330 72 504 128 406 129 630 307 695 553 20
73 19 227 -1 304 -41 158 -160 323 -309 425 -188 130 -366 184 -915 277 -243
41 -296 47 -455 50 -124 2 -208 -1 -270 -11z m386 -45 c111 -11 574 -88 726
-120 202 -43 387 -115 496 -194 117 -83 196 -176 248 -292 121 -266 48 -525
-195 -699 -66 -47 -259 -145 -286 -145 -9 0 -20 -4 -25 -9 -48 -44 -660 -190
-1010 -240 -302 -44 -614 -55 -746 -27 -121 26 -215 89 -258 174 -48 94 -56
146 -56 362 1 484 87 772 290 975 134 134 271 190 517 214 122 12 184 12 299
1z"/>
<path d="M1488 8084 c-158 -28 -264 -93 -372 -228 -58 -73 -87 -129 -119 -232
-38 -121 -52 -208 -51 -334 1 -263 108 -418 329 -476 57 -16 106 -19 265 -18
243 0 344 19 735 135 382 114 459 150 586 279 92 94 114 142 114 255 0 106
-18 150 -93 228 -60 63 -205 164 -307 215 -136 67 -400 143 -605 172 -123 18
-394 20 -482 4z m471 -59 c200 -28 463 -101 586 -162 81 -41 206 -126 268
-183 110 -101 139 -192 97 -305 -18 -48 -39 -76 -100 -137 -125 -123 -253
-176 -780 -320 -178 -48 -338 -71 -500 -71 -225 0 -344 35 -424 124 -81 88
-111 201 -103 374 11 222 85 414 207 535 124 124 226 158 477 159 96 1 207 -5
272 -14z"/>
<path d="M1738 7831 c-86 -28 -138 -63 -208 -137 -154 -166 -168 -369 -33
-508 46 -47 96 -70 192 -86 258 -43 739 111 906 291 64 70 83 124 63 184 -12
36 -21 44 -93 80 -45 22 -139 59 -210 83 -314 103 -502 131 -617 93z m342 -71
c240 -60 490 -150 518 -187 55 -74 -73 -209 -287 -303 -181 -79 -312 -111
-487 -117 -159 -7 -225 8 -279 63 -61 61 -80 108 -79 199 0 68 4 89 29 139 56
111 175 206 295 233 70 15 146 8 290 -27z"/>
<path d="M11310 7633 c-312 -49 -537 -226 -681 -540 -92 -198 -119 -324 -119
-558 0 -161 -15 -331 -35 -409 -38 -146 -201 -318 -371 -391 -157 -68 -267
-102 -534 -164 -193 -46 -401 -109 -497 -152 -155 -69 -294 -185 -385 -319
-38 -58 -108 -189 -144 -275 -7 -16 -26 -61 -43 -100 -16 -38 -48 -115 -70
-171 -59 -146 -153 -311 -236 -411 -157 -191 -352 -329 -780 -553 -77 -40
-153 -85 -169 -99 -16 -14 -25 -19 -21 -11 5 8 -10 3 -36 -12 -24 -14 -71 -41
-104 -59 -217 -117 -499 -299 -640 -412 -224 -180 -437 -446 -544 -679 -91
-198 -125 -348 -124 -558 0 -139 1 -150 37 -265 128 -412 404 -730 862 -992
310 -177 721 -322 1209 -425 157 -33 383 -33 505 0 266 72 477 253 669 577 81
137 142 261 256 520 103 237 129 283 272 503 207 318 419 576 761 924 136 139
303 318 371 398 390 456 610 669 806 775 248 136 464 156 855 80 98 -19 505
-121 603 -151 13 -4 17 1 17 23 0 34 27 24 -316 113 -596 154 -855 152 -1164
-6 -214 -110 -411 -296 -834 -789 -76 -88 -236 -259 -355 -380 -366 -372 -584
-636 -813 -990 -111 -171 -156 -255 -248 -465 -281 -644 -480 -908 -780 -1036
-236 -102 -489 -86 -1015 62 -291 81 -598 207 -815 332 -316 183 -564 432
-700 702 -123 246 -161 483 -114 725 16 84 70 233 117 326 195 383 496 668
1022 969 61 34 121 72 134 84 13 11 20 14 16 6 -7 -12 -6 -13 6 -4 8 6 113 64
234 129 471 251 591 330 764 498 93 91 149 160 208 257 45 74 114 217 148 305
183 484 305 654 563 784 111 56 220 91 507 162 518 129 664 193 825 366 135
145 158 221 171 588 5 143 14 286 20 318 5 33 8 62 5 65 -3 3 -1 10 4 17 5 6
21 43 36 81 101 270 252 462 434 551 118 59 185 75 332 80 109 5 136 2 196
-16 94 -28 150 -61 217 -129 98 -99 165 -273 165 -429 0 -123 -47 -308 -111
-435 -42 -83 -128 -186 -270 -319 -255 -239 -311 -303 -371 -424 -108 -215
-25 -391 247 -527 73 -37 107 -51 513 -213 473 -187 724 -264 960 -290 l62 -7
0 30 c0 29 0 29 -72 36 -145 13 -439 91 -653 173 -267 103 -749 299 -806 329
-257 135 -306 305 -152 529 49 71 129 154 315 328 160 149 221 226 288 362 67
137 90 231 97 390 5 112 2 143 -16 215 -60 242 -209 391 -439 444 -65 15 -189
19 -252 9z"/>
<path d="M11365 7356 c-176 -45 -344 -206 -397 -379 -26 -87 -22 -208 9 -279
96 -213 416 -212 634 2 74 74 114 145 131 239 20 109 -17 257 -87 339 -60 72
-186 106 -290 78z m181 -65 c128 -58 186 -289 110 -441 -77 -153 -293 -276
-449 -256 -108 15 -166 69 -194 180 -14 58 -14 77 -4 134 48 258 345 470 537
383z"/>
<path d="M3853 6899 c-144 -18 -315 -91 -612 -258 -68 -38 -153 -82 -190 -96
-36 -15 -79 -33 -94 -41 -16 -7 -25 -9 -21 -3 4 7 0 9 -12 5 -11 -3 -77 -15
-149 -26 -71 -12 -188 -32 -260 -45 -71 -13 -193 -36 -270 -50 -606 -112 -857
-183 -1235 -352 -335 -150 -465 -191 -635 -200 -151 -8 -229 13 -348 92 l-28
18 3 -39 c3 -37 6 -41 68 -72 137 -69 297 -78 495 -27 122 31 234 73 477 181
407 180 649 244 1513 399 171 31 330 59 355 62 90 10 199 56 400 168 230 128
303 162 422 200 349 111 656 -60 876 -487 135 -263 174 -537 107 -743 -74
-227 -213 -398 -630 -780 -253 -232 -328 -310 -511 -525 -175 -207 -367 -405
-461 -476 -122 -92 -358 -187 -773 -312 -452 -137 -651 -212 -902 -339 -324
-165 -572 -364 -727 -583 -236 -334 -236 -678 -2 -910 145 -143 270 -206 682
-343 419 -140 507 -179 701 -309 314 -210 553 -497 733 -881 55 -118 62 -127
87 -127 16 0 28 3 28 6 0 3 -26 63 -58 132 -176 387 -431 694 -755 913 -195
131 -327 191 -664 300 -341 110 -453 157 -598 251 -268 175 -347 467 -207 768
164 352 555 655 1144 886 110 43 390 136 573 189 312 91 611 208 734 287 83
53 334 303 466 463 206 250 288 334 610 626 292 264 438 437 530 624 67 136
85 208 85 351 0 183 -38 338 -131 533 -191 403 -492 613 -816 570z"/>
<path d="M3615 6533 c-119 -14 -225 -46 -497 -151 -178 -68 -295 -98 -418
-107 -47 -3 -173 -17 -280 -30 -606 -77 -1007 -193 -1370 -397 -74 -41 -187
-105 -250 -140 -292 -164 -479 -216 -679 -190 -49 7 -97 15 -105 18 -12 5 -16
-1 -16 -24 0 -28 3 -31 52 -41 99 -22 190 -24 285 -7 168 29 308 89 593 253
350 201 544 282 868 363 215 53 619 116 901 140 176 15 244 33 511 137 91 36
203 76 250 90 105 30 253 41 342 24 175 -34 343 -174 440 -366 55 -109 80
-211 86 -351 6 -161 -11 -247 -73 -379 -79 -168 -180 -296 -480 -605 -104
-107 -217 -227 -250 -265 -231 -269 -395 -424 -570 -537 -112 -73 -306 -168
-495 -242 -80 -32 -167 -66 -195 -78 -27 -11 -185 -71 -350 -134 -345 -132
-359 -138 -520 -211 -322 -147 -556 -222 -805 -259 -141 -20 -360 -14 -498 14
l-92 19 0 -28 c0 -32 -2 -31 135 -55 156 -28 384 -24 555 9 211 41 407 106
665 222 219 98 237 105 500 205 132 50 285 109 340 132 55 22 134 52 175 67
244 89 491 209 645 312 161 108 259 201 517 489 67 74 182 198 257 275 299
309 387 413 475 565 126 216 157 449 91 689 -63 230 -211 425 -387 510 -117
57 -236 78 -353 64z"/>
<path d="M3450 6253 c-60 -5 -149 -24 -330 -69 -214 -53 -282 -64 -386 -64
-263 0 -757 -71 -1016 -146 -313 -90 -490 -181 -847 -438 -258 -185 -379 -254
-521 -292 -68 -19 -269 -26 -322 -11 -26 7 -28 5 -28 -22 0 -29 1 -30 67 -37
37 -3 110 -4 164 -1 186 10 346 84 644 299 220 158 341 236 465 298 342 171
755 261 1335 290 198 10 269 22 510 83 189 48 244 57 345 57 150 0 256 -41
354 -134 132 -128 193 -335 153 -523 -55 -257 -280 -596 -627 -944 -286 -287
-471 -409 -1088 -716 -372 -185 -373 -186 -355 -207 18 -21 18 -21 -4 -3 -27
23 -35 21 -183 -53 -165 -82 -324 -145 -405 -159 -186 -32 -320 -43 -585 -48
-261 -5 -346 -2 -702 24 l-88 6 0 -25 c0 -23 5 -26 47 -32 237 -30 829 -41
1048 -18 189 20 337 43 375 59 19 8 65 26 102 39 38 14 151 65 253 114 102 50
187 90 190 90 12 0 679 338 784 397 261 147 432 276 630 472 337 335 580 685
650 941 25 90 28 244 6 337 -70 295 -320 467 -635 436z"/>
<path d="M3100 5949 c-52 -5 -104 -11 -115 -15 -11 -3 -186 -10 -390 -14 -323
-6 -383 -10 -468 -28 -214 -47 -404 -128 -632 -272 -141 -88 -223 -149 -595
-439 -141 -110 -277 -208 -320 -230 -144 -75 -305 -111 -492 -111 l-88 0 0
-26 0 -27 163 6 c137 4 176 9 252 31 178 53 249 99 665 426 490 386 748 526
1100 596 81 16 133 19 364 16 196 -2 304 2 400 13 192 23 389 30 471 16 139
-24 226 -89 260 -196 81 -257 -131 -631 -595 -1051 -262 -237 -373 -307 -906
-571 -687 -341 -939 -420 -1364 -430 -258 -6 -422 14 -712 88 -96 24 -98 24
-98 -6 0 -21 7 -27 53 -39 261 -74 548 -112 776 -103 246 10 431 46 683 133
161 56 222 83 633 281 569 274 689 350 988 621 343 311 560 621 605 864 6 32
6 51 -2 59 -8 9 -8 10 3 4 11 -6 12 5 6 66 -21 214 -125 308 -378 343 -35 5
-37 3 -25 -12 11 -15 10 -15 -8 1 -23 19 -70 20 -234 6z"/>
<path d="M2200 5687 c-3 -2 -36 -7 -75 -11 -385 -36 -703 -204 -1052 -553 -72
-73 -183 -197 -246 -275 -130 -162 -135 -167 -274 -272 -161 -122 -226 -223
-227 -351 -1 -59 3 -77 27 -117 54 -92 180 -159 367 -195 135 -26 531 -25 675
1 342 62 698 222 1048 470 234 166 562 465 643 588 71 106 88 164 89 288 0
125 -22 187 -88 246 -69 63 -234 122 -442 159 -85 16 -434 33 -445 22z m375
-68 c50 -6 133 -22 185 -35 292 -74 366 -141 364 -329 -2 -147 -57 -245 -236
-422 -287 -283 -584 -500 -893 -653 -234 -116 -443 -185 -670 -221 -119 -19
-448 -17 -565 4 -271 47 -388 133 -378 276 8 113 70 194 253 332 82 62 120
100 220 224 205 255 425 465 627 597 188 124 412 207 608 225 36 3 67 7 69 9
10 9 333 3 416 -7z"/>
<path d="M2032 5470 c-95 -25 -245 -97 -236 -112 4 -7 3 -8 -5 -4 -28 18 -261
-161 -374 -287 -128 -144 -188 -238 -231 -361 -63 -183 -5 -354 142 -418 216
-94 663 58 946 323 214 200 291 392 240 598 -30 122 -88 202 -178 249 -70 35
-199 41 -304 12z m273 -59 c88 -39 141 -123 166 -265 27 -156 -50 -319 -230
-488 -285 -268 -719 -414 -913 -306 -87 48 -133 163 -110 276 49 241 348 568
662 722 177 88 318 108 425 61z"/>
<path d="M10008 5375 c-353 -50 -722 -212 -937 -411 -158 -147 -251 -287 -454
-685 -74 -145 -155 -299 -180 -342 -144 -242 -315 -409 -552 -537 -113 -61
-271 -122 -582 -226 -330 -110 -575 -204 -605 -231 -10 -9 -18 -13 -18 -9 0
12 -116 -52 -222 -123 -114 -76 -225 -181 -294 -278 -38 -52 -111 -193 -119
-227 -1 -6 -7 -24 -14 -41 -31 -76 -43 -158 -48 -331 -7 -252 14 -353 121
-579 67 -139 172 -279 307 -410 129 -125 177 -164 309 -253 515 -345 1154
-482 1578 -338 321 110 561 375 837 926 151 303 385 661 567 871 106 123 313
340 593 622 254 255 275 280 420 482 59 82 124 170 146 196 21 26 39 50 39 53
0 4 67 82 149 174 268 301 421 439 768 691 127 92 154 141 119 210 -15 29
-177 143 -351 248 -309 187 -814 433 -1023 499 -180 57 -376 75 -554 49z m455
-78 c255 -67 767 -316 1177 -570 171 -106 254 -167 258 -188 5 -29 -42 -72
-252 -228 -227 -169 -376 -305 -574 -523 -118 -131 -256 -299 -341 -417 -201
-277 -230 -312 -450 -532 -124 -124 -241 -243 -260 -265 -18 -21 -92 -100
-165 -174 -249 -255 -393 -445 -591 -780 -37 -63 -76 -127 -85 -141 -10 -14
-50 -88 -90 -165 -203 -392 -301 -537 -461 -688 -141 -133 -269 -204 -445
-248 -116 -29 -378 -31 -524 -5 -411 75 -802 258 -1121 525 -218 183 -378 415
-457 663 -42 130 -56 247 -49 399 13 263 104 484 270 653 195 199 419 311
1025 511 404 134 583 212 742 324 233 164 356 330 595 803 182 359 273 500
409 635 114 114 211 181 371 259 269 131 508 187 770 181 122 -3 169 -8 248
-29z"/>
<path d="M9835 5014 c-236 -42 -446 -146 -594 -295 -168 -168 -269 -363 -431
-834 -158 -459 -235 -611 -390 -766 -123 -124 -226 -179 -388 -205 -74 -12
-170 -14 -455 -12 -444 4 -483 -3 -732 -122 -319 -152 -522 -381 -600 -675
-22 -82 -30 -272 -17 -371 40 -298 259 -607 570 -807 233 -149 495 -249 837
-319 154 -31 355 -31 475 0 189 50 333 146 481 323 96 115 211 303 326 534 79
156 150 277 215 365 26 36 308 326 626 645 554 555 642 649 795 844 147 187
315 466 391 647 97 231 102 443 15 617 -112 222 -351 374 -681 432 -105 19
-336 18 -443 -1z m545 -78 c244 -64 444 -204 528 -371 61 -122 74 -293 33
-438 -57 -208 -258 -558 -473 -827 -154 -192 -260 -303 -921 -960 -229 -228
-417 -417 -417 -420 0 -4 -9 -16 -19 -27 -48 -51 -134 -194 -239 -398 -219
-422 -347 -599 -521 -717 -236 -161 -486 -180 -907 -69 -602 159 -1025 509
-1146 948 -32 115 -31 327 0 437 49 172 127 301 254 421 78 74 125 115 133
115 2 0 30 16 61 36 124 79 322 155 457 175 57 8 172 10 375 6 321 -6 443 2
563 34 209 56 396 235 534 509 56 112 93 206 187 475 38 110 78 223 88 250
165 454 390 699 737 805 137 41 207 50 403 46 163 -3 198 -6 290 -30z"/>
<path d="M9867 4724 c-368 -89 -608 -302 -760 -674 -88 -216 -167 -505 -214
-780 -25 -151 -25 -451 0 -535 59 -191 163 -270 357 -269 142 1 280 47 454
151 130 78 372 284 362 309 -3 7 0 11 7 8 17 -6 143 140 238 276 160 229 277
484 324 706 23 107 24 289 1 373 -62 236 -232 380 -513 434 -130 26 -153 26
-256 1z m291 -64 c290 -70 442 -259 442 -551 -1 -355 -241 -825 -609 -1189
-195 -193 -356 -301 -546 -366 -69 -24 -96 -28 -195 -28 -100 -1 -120 2 -156
21 -119 64 -168 191 -167 438 2 324 127 836 278 1141 147 295 339 453 655 540
98 27 166 26 298 -6z"/>
<path d="M9822 4345 c-154 -35 -322 -163 -394 -301 -61 -118 -73 -193 -73
-474 0 -225 2 -251 22 -316 27 -85 68 -145 117 -168 47 -22 137 -22 201 -1 74
25 147 64 140 75 -3 6 1 7 10 4 20 -8 101 53 188 142 126 127 225 295 273 463
23 80 26 106 21 180 -8 141 -62 256 -153 325 -94 72 -229 99 -352 71z m215
-60 c100 -30 187 -122 220 -235 22 -72 21 -189 -2 -270 -57 -204 -244 -464
-403 -557 -23 -14 -39 -30 -35 -35 3 -6 2 -8 -4 -5 -5 4 -43 -8 -84 -25 -93
-40 -182 -45 -225 -12 -65 48 -92 149 -100 369 -14 376 52 560 249 692 128 86
264 114 384 78z"/>
<path d="M7149 2600 c-206 -35 -385 -124 -512 -254 -176 -181 -234 -433 -155
-676 121 -374 455 -632 960 -742 150 -32 409 -32 521 0 183 53 354 179 464
343 53 78 128 242 157 340 35 121 69 335 62 383 -29 178 -251 344 -627 470
-358 119 -675 169 -870 136z m310 -56 c228 -34 499 -107 692 -187 280 -115
439 -260 439 -397 0 -64 -27 -218 -57 -319 -96 -333 -286 -558 -543 -646 -111
-38 -247 -51 -370 -37 -600 70 -1017 377 -1106 812 -56 277 88 548 363 684
126 62 284 101 427 105 27 0 96 -6 155 -15z"/>
<path d="M7087 2253 c-15 -2 -25 -8 -22 -13 3 -4 -4 -6 -15 -3 -57 15 -209
-108 -252 -204 -33 -72 -37 -220 -9 -310 92 -306 512 -511 851 -416 172 47
265 152 277 307 15 191 -94 381 -294 513 -155 102 -365 152 -536 126z m181
-53 c258 -33 500 -209 573 -418 27 -73 29 -191 5 -246 -58 -137 -201 -204
-409 -193 -195 10 -342 72 -467 196 -143 142 -188 320 -118 472 57 123 144
176 323 198 6 0 48 -4 93 -9z"/>
<path d="M5100 5244 c-133 -28 -281 -92 -435 -187 -159 -98 -441 -335 -636
-533 -149 -153 -198 -211 -386 -461 -346 -460 -535 -615 -838 -687 -671 -161
-1002 -289 -1330 -514 -117 -81 -299 -268 -357 -367 -180 -309 -132 -604 134
-824 150 -124 378 -245 763 -406 336 -141 513 -239 638 -354 85 -79 175 -186
224 -269 70 -118 161 -349 218 -557 20 -72 24 -80 48 -83 19 -2 27 1 27 12 0
30 -94 324 -139 436 -84 206 -176 345 -314 477 -150 142 -342 250 -727 409
-595 245 -851 437 -911 684 -70 289 124 607 523 859 273 172 635 307 1131 422
207 48 307 87 428 170 157 107 310 271 549 589 166 221 254 321 432 496 427
419 771 628 1055 642 127 6 204 -15 317 -88 250 -161 389 -441 389 -785 0
-204 -35 -361 -118 -525 -35 -71 -231 -366 -431 -652 -197 -282 -236 -341
-347 -525 -64 -106 -155 -249 -202 -317 -122 -178 -175 -300 -215 -496 -25
-125 -27 -315 -5 -465 14 -95 28 -156 96 -430 48 -192 70 -341 104 -700 20
-216 19 -215 50 -215 29 0 29 -2 15 123 -5 51 -17 164 -25 252 -21 221 -49
383 -95 565 -110 435 -129 608 -91 832 34 195 90 326 227 524 45 67 124 190
175 275 116 196 146 241 354 539 228 328 315 457 315 468 0 6 4 12 9 14 20 7
122 185 155 271 67 175 80 249 80 457 -1 168 -3 194 -27 285 -74 277 -244 493
-472 600 -116 55 -227 67 -355 39z"/>
<path d="M4795 4845 c-77 -17 -153 -47 -235 -92 -193 -107 -405 -331 -675
-713 -328 -463 -425 -588 -557 -716 -191 -187 -349 -274 -606 -334 -47 -11
-51 -14 -40 -29 11 -14 11 -14 -7 1 -19 16 -28 15 -155 -13 -543 -121 -888
-357 -966 -661 -23 -88 -14 -160 30 -252 57 -119 196 -281 221 -258 5 4 5 2 1
-5 -4 -7 25 -32 76 -66 115 -77 276 -150 518 -237 288 -103 512 -260 636 -445
133 -201 218 -452 279 -825 34 -210 31 -200 60 -200 15 0 25 6 25 14 0 42 -65
389 -94 506 -71 280 -186 515 -319 658 -113 120 -319 249 -523 327 -361 138
-438 172 -551 247 -136 91 -212 174 -278 306 -30 61 -36 83 -36 135 0 188 149
378 405 516 148 81 323 140 556 191 440 95 564 153 797 374 68 64 212 230 271
313 528 741 623 859 811 1014 174 145 320 201 521 202 142 1 219 -17 355 -83
173 -84 271 -182 316 -317 18 -56 21 -81 16 -162 -6 -112 -30 -196 -95 -331
-25 -52 -45 -101 -45 -108 1 -7 -2 -11 -5 -8 -3 3 -21 -20 -39 -52 -145 -243
-291 -408 -928 -1052 -470 -476 -542 -558 -611 -707 -54 -115 -69 -182 -68
-318 1 -182 49 -342 176 -585 306 -583 334 -655 360 -940 l13 -135 29 -3 28
-4 -6 79 c-29 322 -93 514 -289 863 -85 151 -182 362 -218 473 -50 155 -52
346 -4 475 65 179 126 253 585 717 560 566 622 632 777 825 91 112 230 316
226 331 -2 5 1 9 5 9 11 0 103 196 131 279 111 328 -23 592 -378 744 -148 63
-349 84 -496 52z"/>
<path d="M4765 4455 c-5 -2 -43 -11 -83 -20 -157 -36 -304 -127 -448 -276
-197 -206 -297 -434 -298 -684 -1 -142 15 -222 58 -301 88 -159 269 -187 505
-78 281 130 580 427 711 706 51 110 70 194 72 321 2 86 -2 110 -21 152 -57
128 -177 185 -386 184 -55 0 -104 -2 -110 -4z m295 -70 c72 -22 143 -91 160
-155 17 -61 7 -217 -20 -300 -113 -360 -579 -796 -895 -838 -224 -29 -325 104
-312 413 7 178 50 301 163 470 117 176 312 336 475 390 142 48 315 56 429 20z"/>
<path d="M11935 3490 c-509 -42 -949 -254 -1182 -567 -29 -40 -91 -104 -137
-142 -46 -38 -105 -96 -130 -128 -133 -165 -167 -208 -256 -328 -131 -175
-256 -365 -382 -575 -264 -441 -397 -707 -493 -979 -25 -72 -85 -215 -134
-318 -104 -221 -139 -315 -148 -394 -6 -58 -5 -59 19 -59 23 0 27 5 33 46 13
91 54 195 161 414 54 111 86 191 155 380 126 351 522 1039 842 1464 214 284
283 365 380 443 38 30 92 87 121 126 215 289 555 473 1006 544 94 15 174 18
430 18 289 -1 459 -10 728 -41 l52 -6 0 29 0 30 -77 6 c-43 4 -154 13 -248 21
-216 20 -597 27 -740 16z"/>
<path d="M11765 3275 c-240 -37 -490 -136 -715 -282 -141 -92 -248 -180 -390
-323 -244 -244 -382 -442 -801 -1146 -303 -510 -419 -806 -419 -1068 0 -196
82 -341 241 -426 52 -28 66 -31 131 -28 l73 3 -55 19 c-406 138 -443 475 -123
1110 75 151 235 431 343 601 31 50 74 119 95 155 78 133 266 409 351 515 403
504 902 795 1424 831 180 12 384 -22 730 -121 102 -30 214 -61 250 -70 36 -9
73 -18 83 -21 13 -4 17 1 17 24 0 28 -3 30 -67 46 -38 10 -144 39 -238 66
-233 67 -352 96 -471 114 -120 19 -344 20 -459 1z"/>
<path d="M11725 3039 c-156 -19 -374 -112 -550 -237 -163 -115 -522 -443 -508
-465 3 -6 1 -7 -4 -4 -12 8 -111 -100 -236 -257 -413 -520 -710 -1202 -658
-1512 36 -212 174 -329 462 -391 114 -24 431 -24 614 1 595 80 1055 248 1401
510 77 58 211 194 277 280 124 162 212 374 243 586 20 137 15 392 -11 535 -44
244 -166 481 -345 669 -212 223 -433 314 -685 285z m226 -63 c294 -63 587
-370 712 -748 32 -97 43 -158 57 -329 14 -163 2 -312 -36 -469 -97 -391 -381
-705 -834 -922 -526 -252 -1371 -373 -1733 -249 -151 52 -243 135 -278 253
-71 234 81 692 399 1203 284 455 770 946 1133 1144 208 113 407 153 580 117z"/>
<path d="M11425 2510 c-44 -11 -134 -47 -200 -80 -344 -171 -708 -557 -906
-963 -246 -505 -224 -850 63 -982 98 -45 194 -58 373 -52 369 13 718 139 1020
368 60 45 213 198 244 244 15 22 43 63 63 91 145 206 208 503 164 776 -24 147
-126 339 -239 451 -68 66 -123 101 -216 135 -94 34 -254 40 -366 12z m244 -41
c198 -32 335 -139 443 -346 57 -110 74 -164 88 -278 28 -225 -43 -516 -167
-688 -79 -112 -151 -193 -228 -260 -298 -258 -698 -409 -1090 -411 -158 0
-231 12 -322 55 -75 36 -134 99 -164 178 -32 80 -32 242 0 361 93 349 292 681
586 976 262 264 519 405 770 422 11 1 49 -3 84 -9z"/>
<path d="M11185 1786 c-272 -69 -517 -304 -557 -535 -24 -139 18 -259 107
-305 53 -28 185 -28 265 -2 74 25 181 79 261 132 94 62 219 195 259 278 30 61
34 76 34 159 0 78 -4 100 -26 148 -54 117 -185 164 -343 125z m242 -83 c55
-44 76 -107 71 -208 -5 -99 -33 -155 -120 -245 -241 -247 -579 -349 -675 -203
-14 22 -18 48 -18 133 0 98 2 110 32 170 44 90 115 174 202 242 138 105 256
150 388 145 75 -3 86 -6 120 -34z"/>
<path d="M672 1165 c-246 -47 -394 -151 -599 -424 -66 -86 -73 -100 -73 -141
1 -37 3 -42 13 -30 7 9 52 70 102 135 205 275 356 378 605 411 145 19 296 17
485 -5 279 -34 489 -90 699 -189 141 -67 215 -119 321 -226 133 -133 215 -255
442 -653 20 -36 29 -43 54 -43 l30 0 -17 33 c-33 64 -178 314 -237 407 -78
125 -182 255 -265 331 -207 190 -519 319 -932 384 -144 23 -528 29 -628 10z"/>
<path d="M1105 929 c-175 -25 -307 -90 -425 -208 -70 -71 -95 -104 -137 -186
-66 -130 -112 -273 -167 -517 -3 -14 2 -18 23 -18 28 0 29 2 66 148 71 280
158 455 282 564 70 62 170 118 254 142 85 24 244 39 339 31 161 -13 399 -79
535 -148 219 -110 407 -320 550 -614 55 -111 62 -122 88 -122 15 -1 27 4 27 9
0 24 -135 277 -195 366 -159 233 -305 355 -551 455 -221 90 -484 127 -689 98z"/>
<path d="M1331 690 c-181 -48 -352 -171 -449 -325 -54 -85 -162 -324 -162
-359 0 -3 12 -6 28 -6 25 0 29 6 51 65 138 386 381 589 706 589 55 0 125 -6
155 -13 79 -19 191 -73 268 -128 134 -95 306 -296 392 -455 27 -50 35 -58 61
-58 16 0 29 4 29 8 0 5 -25 51 -57 103 -187 311 -425 517 -670 579 -101 26
-251 26 -352 0z"/>
<path d="M12969 604 c-52 -79 -173 -217 -235 -268 -74 -61 -175 -113 -293
-150 -73 -23 -371 -82 -816 -161 l-130 -23 151 -1 c141 -1 170 2 425 49 316
58 422 86 535 140 131 63 224 144 354 309 37 46 41 57 38 98 l-3 47 -26 -40z"/>
<path d="M1505 419 c-36 -5 -94 -25 -145 -50 -100 -50 -207 -151 -283 -267
-64 -97 -65 -102 -31 -102 25 0 35 10 69 63 60 94 188 218 263 255 179 88 382
61 587 -78 48 -33 175 -164 201 -209 15 -25 25 -31 52 -31 31 0 32 1 21 23
-55 102 -211 254 -325 314 -131 69 -284 100 -409 82z"/>
<path d="M1523 65 c-29 -8 -72 -25 -95 -37 l-43 -23 54 -3 c29 -2 81 4 115 12
78 20 116 20 189 1 32 -8 81 -15 110 -14 l52 1 -75 36 c-66 32 -84 37 -165 39
-57 2 -109 -3 -142 -12z"/>
</g>
</svg>
