<?xml version="1.0" standalone="no"?>
<!DOCTYPE svg PUBLIC "-//W3C//DTD SVG 20010904//EN"
 "http://www.w3.org/TR/2001/REC-SVG-20010904/DTD/svg10.dtd">
<svg version="1.0" xmlns="http://www.w3.org/2000/svg"
 width="1920.000000pt" height="1080.000000pt" viewBox="0 0 1920.000000 1080.000000"
 preserveAspectRatio="xMidYMid meet">

<g transform="translate(0.000000,1080.000000) scale(0.100000,-0.100000)"
fill="#000000" stroke="none">
<path d="M9280 10150 c-132 -9 -403 -37 -440 -46 -14 -3 -61 -12 -105 -19
-105 -17 -231 -42 -275 -55 -19 -5 -82 -21 -140 -35 -120 -30 -161 -42 -320
-96 -177 -60 -203 -69 -225 -79 -11 -5 -49 -21 -85 -35 -129 -52 -355 -160
-495 -237 -413 -229 -749 -481 -1088 -816 -321 -318 -562 -628 -780 -1004 -86
-147 -203 -379 -251 -498 -15 -36 -31 -74 -36 -85 -52 -111 -166 -470 -209
-655 -41 -176 -51 -228 -67 -325 -81 -510 -81 -1020 0 -1530 31 -190 83 -408
148 -620 31 -98 109 -321 128 -360 5 -11 21 -49 35 -85 47 -115 166 -351 252
-499 218 -376 464 -692 784 -1008 287 -283 548 -487 904 -708 102 -64 479
-260 570 -297 22 -9 69 -28 105 -43 36 -14 74 -30 85 -35 22 -10 48 -19 225
-79 159 -54 200 -66 320 -96 58 -14 121 -30 140 -35 87 -25 312 -65 480 -84
69 -9 163 -21 210 -28 116 -17 784 -17 900 0 47 7 141 19 210 28 168 19 393
59 480 84 19 5 82 21 140 35 120 30 161 42 320 96 177 60 203 69 225 79 11 5
49 21 85 35 36 15 83 34 105 43 91 37 468 233 570 297 541 335 990 739 1362
1225 214 279 460 702 577 990 15 36 31 74 36 85 52 111 166 470 209 655 55
238 71 331 97 545 49 415 39 876 -30 1310 -31 190 -83 408 -148 620 -31 98
-109 321 -128 360 -5 11 -21 49 -36 85 -48 119 -165 351 -251 498 -218 377
-464 693 -784 1009 -336 332 -674 584 -1084 811 -140 77 -366 185 -495 237
-36 14 -74 30 -85 35 -22 10 -48 19 -225 79 -159 54 -200 66 -320 96 -58 14
-121 30 -140 35 -89 26 -314 65 -485 85 -71 8 -164 20 -205 26 -97 13 -621 20
-770 9z m1295 -673 l120 -42 12 -60 c7 -33 19 -103 27 -155 9 -52 25 -153 36
-225 70 -432 90 -564 105 -665 8 -52 23 -153 34 -225 31 -197 38 -247 61 -415
11 -85 25 -182 31 -215 5 -33 16 -114 24 -180 37 -322 46 -391 50 -405 2 -8 9
-76 15 -150 6 -74 15 -171 20 -215 32 -250 70 -982 70 -1335 0 -219 -24 -850
-35 -905 -3 -16 -12 -111 -21 -210 -15 -178 -19 -216 -49 -450 -26 -198 -33
-244 -55 -370 -12 -66 -27 -163 -35 -215 -8 -52 -23 -138 -34 -190 -11 -52
-34 -165 -51 -250 -37 -185 -98 -455 -111 -490 -9 -25 -27 -102 -54 -230 -8
-36 -24 -101 -35 -145 -12 -44 -30 -114 -40 -155 -10 -41 -26 -100 -35 -130
-9 -30 -21 -73 -27 -95 -6 -22 -18 -44 -27 -50 -49 -30 -267 -91 -424 -119
-143 -25 -143 -25 -133 41 12 83 38 244 57 358 11 66 27 176 35 244 8 68 18
140 23 160 5 20 13 79 16 131 4 52 11 105 16 117 4 12 13 80 19 150 12 146 26
270 46 393 7 47 18 160 24 250 6 91 15 190 20 221 6 30 17 156 25 280 8 123
19 276 25 339 5 63 10 164 10 224 0 61 4 160 10 220 11 130 19 619 9 608 -10
-11 -102 -271 -143 -402 -19 -63 -118 -360 -218 -660 l-183 -545 -40 0 c-45 0
-37 -18 -91 190 -100 388 -221 796 -291 979 -26 67 -70 189 -100 271 l-54 150
6 -270 c3 -148 10 -481 15 -740 15 -702 18 -2701 4 -2715 -8 -8 -30 -7 -80 4
-89 18 -422 123 -451 142 -25 15 -24 14 -49 279 -9 99 -23 236 -30 305 -7 69
-20 206 -28 305 -8 99 -20 209 -26 245 -5 36 -12 106 -15 155 -4 50 -13 160
-21 245 -8 85 -18 216 -23 290 -18 258 -41 566 -51 695 -6 72 -15 213 -20 315
-6 102 -12 210 -15 240 -6 55 -27 506 -45 950 -5 129 -14 343 -20 475 -10 223
-25 711 -50 1590 -5 198 -14 488 -20 645 -20 553 -41 1331 -35 1340 15 24 239
98 249 81 2 -3 34 -112 71 -241 217 -759 547 -1730 876 -2580 33 -85 98 -254
144 -375 46 -121 95 -251 110 -290 14 -38 30 -74 34 -78 4 -4 15 16 23 45 126
429 198 706 263 1003 28 131 50 228 65 290 6 22 24 112 41 200 16 88 36 192
44 230 69 352 163 1046 215 1585 23 237 25 250 37 249 4 0 62 -19 128 -42z
m731 -350 c43 -24 116 -66 160 -93 45 -27 101 -61 125 -76 79 -48 282 -189
369 -257 47 -37 101 -77 120 -91 64 -44 324 -271 388 -339 297 -311 931 -1079
1145 -1386 15 -22 49 -69 74 -105 104 -146 239 -409 296 -580 99 -297 131
-467 131 -710 0 -436 -170 -829 -506 -1173 -130 -133 -313 -267 -458 -337 -36
-17 -76 -37 -90 -45 -38 -20 -195 -62 -280 -75 -41 -6 -126 -20 -188 -32 -106
-19 -112 -22 -118 -47 -19 -84 -149 -575 -165 -621 -98 -293 -176 -507 -223
-620 -32 -74 -68 -162 -80 -195 -32 -83 -233 -490 -248 -503 -34 -27 -696
-352 -718 -352 -13 0 -13 12 1 47 40 100 144 408 184 543 7 25 40 131 73 235
33 105 70 231 82 280 12 50 42 164 67 255 25 91 48 185 53 210 4 25 27 133 50
240 23 107 48 233 56 280 7 47 22 141 33 210 33 196 54 376 76 620 34 398 45
870 25 1155 -5 72 -16 249 -25 395 -19 324 -66 757 -115 1065 -11 72 -27 173
-35 225 -19 135 -77 472 -120 700 -20 107 -45 242 -55 300 -10 58 -37 197 -59
310 -23 113 -57 286 -76 385 -20 99 -38 190 -40 203 -3 12 -2 22 3 22 5 0 44
-19 88 -43z m-4226 -389 c0 2 6 -1 14 -7 8 -6 18 -11 22 -10 24 6 131 -58 177
-105 117 -120 182 -227 281 -463 75 -181 173 -508 231 -778 59 -273 137 -820
151 -1061 l7 -112 -39 -6 c-21 -3 -138 -15 -259 -26 -121 -12 -269 -27 -328
-35 -178 -25 -161 -33 -181 93 -23 141 -71 343 -98 412 -70 180 -151 288 -231
308 -158 40 -315 -41 -453 -233 -95 -132 -186 -324 -244 -515 -17 -58 -40
-132 -50 -165 -40 -132 -77 -397 -85 -625 -23 -599 166 -1160 518 -1536 149
-160 323 -247 447 -224 181 34 269 257 288 730 l7 185 95 -3 c52 -2 196 -10
320 -18 123 -8 255 -15 293 -16 44 0 73 -5 82 -14 12 -12 13 -81 10 -412 -5
-614 -40 -1126 -101 -1482 -63 -373 -146 -582 -263 -665 -37 -26 -52 -30 -117
-32 -61 -2 -87 3 -142 26 -72 29 -263 150 -350 222 -290 238 -645 594 -1022
1024 -491 560 -714 913 -861 1360 -38 116 -44 144 -70 325 -17 116 -17 461 -1
580 23 163 52 323 69 380 48 167 86 291 103 335 10 28 35 95 55 150 19 55 58
147 85 205 27 58 59 129 70 159 12 30 47 106 79 170 203 406 299 594 334 651
22 36 54 90 70 120 32 58 109 182 196 315 29 44 92 141 140 215 84 128 229
306 309 378 20 19 71 60 112 91 134 102 196 126 293 110 20 -4 37 -4 37 -1z"/>
<path d="M12353 7128 c4 -18 16 -73 27 -123 11 -49 27 -128 36 -175 8 -47 24
-134 35 -195 62 -340 122 -855 135 -1164 l7 -161 188 0 c200 0 237 7 302 54
88 64 157 280 157 491 -1 177 -52 452 -115 615 -110 285 -171 388 -306 516
-52 48 -78 65 -139 86 -65 23 -306 88 -326 88 -4 0 -4 -15 -1 -32z"/>
</g>
</svg>
